<svg xmlns="http://www.w3.org/2000/svg" width="760" height="300" viewBox="0 0 760 300" font-family="ui-monospace, SFMono-Regular, Menlo, monospace">
  <rect x="1" y="1" width="758" height="298" rx="14" fill="#0d1117" stroke="#1f2a2e"/>
  <line x1="0" y1="56" x2="760" y2="56" stroke="#1a2226"/>
  <circle cx="34" cy="30" r="6" fill="#e05a5a"/><circle cx="56" cy="30" r="6" fill="#e0b34a"/><circle cx="78" cy="30" r="6" fill="#43cf9f"/>
  <text x="118" y="35" fill="#5a6b70" font-size="13">soma</text>
  <rect x="209" y="78" width="11" height="11" fill="#7df0dd" rx="1.5"/><rect x="220" y="78" width="11" height="11" fill="#7df0dd" rx="1.5"/><rect x="231" y="78" width="11" height="11" fill="#7df0dd" rx="1.5"/><rect x="242" y="78" width="11" height="11" fill="#7df0dd" rx="1.5"/><rect x="253" y="78" width="11" height="11" fill="#7df0dd" rx="1.5"/><rect x="264" y="78" width="11" height="11" fill="#7df0dd" rx="1.5"/><rect x="209" y="89" width="11" height="11" fill="#43cf9f" rx="1.5"/><rect x="220" y="89" width="11" height="11" fill="#43cf9f" rx="1.5"/><rect x="209" y="100" width="11" height="11" fill="#2bb894" rx="1.5"/><rect x="220" y="100" width="11" height="11" fill="#2bb894" rx="1.5"/><rect x="231" y="100" width="11" height="11" fill="#2bb894" rx="1.5"/><rect x="242" y="100" width="11" height="11" fill="#2bb894" rx="1.5"/><rect x="253" y="100" width="11" height="11" fill="#2bb894" rx="1.5"/><rect x="264" y="100" width="11" height="11" fill="#2bb894" rx="1.5"/><rect x="253" y="111" width="11" height="11" fill="#1f9c85" rx="1.5"/><rect x="264" y="111" width="11" height="11" fill="#1f9c85" rx="1.5"/><rect x="209" y="122" width="11" height="11" fill="#177c72" rx="1.5"/><rect x="220" y="122" width="11" height="11" fill="#177c72" rx="1.5"/><rect x="231" y="122" width="11" height="11" fill="#177c72" rx="1.5"/><rect x="242" y="122" width="11" height="11" fill="#177c72" rx="1.5"/><rect x="253" y="122" width="11" height="11" fill="#177c72" rx="1.5"/><rect x="264" y="122" width="11" height="11" fill="#177c72" rx="1.5"/><rect x="297" y="78" width="11" height="11" fill="#7df0dd" rx="1.5"/><rect x="308" y="78" width="11" height="11" fill="#7df0dd" rx="1.5"/><rect x="319" y="78" width="11" height="11" fill="#7df0dd" rx="1.5"/><rect x="330" y="78" width="11" height="11" fill="#7df0dd" rx="1.5"/><rect x="341" y="78" width="11" height="11" fill="#7df0dd" rx="1.5"/><rect x="352" y="78" width="11" height="11" fill="#7df0dd" rx="1.5"/><rect x="297" y="89" width="11" height="11" fill="#43cf9f" rx="1.5"/><rect x="308" y="89" width="11" height="11" fill="#43cf9f" rx="1.5"/><rect x="341" y="89" width="11" height="11" fill="#43cf9f" rx="1.5"/><rect x="352" y="89" width="11" height="11" fill="#43cf9f" rx="1.5"/><rect x="297" y="100" width="11" height="11" fill="#2bb894" rx="1.5"/><rect x="308" y="100" width="11" height="11" fill="#2bb894" rx="1.5"/><rect x="341" y="100" width="11" height="11" fill="#2bb894" rx="1.5"/><rect x="352" y="100" width="11" height="11" fill="#2bb894" rx="1.5"/><rect x="297" y="111" width="11" height="11" fill="#1f9c85" rx="1.5"/><rect x="308" y="111" width="11" height="11" fill="#1f9c85" rx="1.5"/><rect x="341" y="111" width="11" height="11" fill="#1f9c85" rx="1.5"/><rect x="352" y="111" width="11" height="11" fill="#1f9c85" rx="1.5"/><rect x="297" y="122" width="11" height="11" fill="#177c72" rx="1.5"/><rect x="308" y="122" width="11" height="11" fill="#177c72" rx="1.5"/><rect x="319" y="122" width="11" height="11" fill="#177c72" rx="1.5"/><rect x="330" y="122" width="11" height="11" fill="#177c72" rx="1.5"/><rect x="341" y="122" width="11" height="11" fill="#177c72" rx="1.5"/><rect x="352" y="122" width="11" height="11" fill="#177c72" rx="1.5"/><rect x="385" y="78" width="11" height="11" fill="#7df0dd" rx="1.5"/><rect x="396" y="78" width="11" height="11" fill="#7df0dd" rx="1.5"/><rect x="440" y="78" width="11" height="11" fill="#7df0dd" rx="1.5"/><rect x="451" y="78" width="11" height="11" fill="#7df0dd" rx="1.5"/><rect x="385" y="89" width="11" height="11" fill="#43cf9f" rx="1.5"/><rect x="396" y="89" width="11" height="11" fill="#43cf9f" rx="1.5"/><rect x="407" y="89" width="11" height="11" fill="#43cf9f" rx="1.5"/><rect x="429" y="89" width="11" height="11" fill="#43cf9f" rx="1.5"/><rect x="440" y="89" width="11" height="11" fill="#43cf9f" rx="1.5"/><rect x="451" y="89" width="11" height="11" fill="#43cf9f" rx="1.5"/><rect x="385" y="100" width="11" height="11" fill="#2bb894" rx="1.5"/><rect x="396" y="100" width="11" height="11" fill="#2bb894" rx="1.5"/><rect x="418" y="100" width="11" height="11" fill="#2bb894" rx="1.5"/><rect x="440" y="100" width="11" height="11" fill="#2bb894" rx="1.5"/><rect x="451" y="100" width="11" height="11" fill="#2bb894" rx="1.5"/><rect x="385" y="111" width="11" height="11" fill="#1f9c85" rx="1.5"/><rect x="396" y="111" width="11" height="11" fill="#1f9c85" rx="1.5"/><rect x="440" y="111" width="11" height="11" fill="#1f9c85" rx="1.5"/><rect x="451" y="111" width="11" height="11" fill="#1f9c85" rx="1.5"/><rect x="385" y="122" width="11" height="11" fill="#177c72" rx="1.5"/><rect x="396" y="122" width="11" height="11" fill="#177c72" rx="1.5"/><rect x="440" y="122" width="11" height="11" fill="#177c72" rx="1.5"/><rect x="451" y="122" width="11" height="11" fill="#177c72" rx="1.5"/><rect x="495" y="78" width="11" height="11" fill="#7df0dd" rx="1.5"/><rect x="506" y="78" width="11" height="11" fill="#7df0dd" rx="1.5"/><rect x="517" y="78" width="11" height="11" fill="#7df0dd" rx="1.5"/><rect x="528" y="78" width="11" height="11" fill="#7df0dd" rx="1.5"/><rect x="484" y="89" width="11" height="11" fill="#43cf9f" rx="1.5"/><rect x="495" y="89" width="11" height="11" fill="#43cf9f" rx="1.5"/><rect x="528" y="89" width="11" height="11" fill="#43cf9f" rx="1.5"/><rect x="539" y="89" width="11" height="11" fill="#43cf9f" rx="1.5"/><rect x="484" y="100" width="11" height="11" fill="#2bb894" rx="1.5"/><rect x="495" y="100" width="11" height="11" fill="#2bb894" rx="1.5"/><rect x="506" y="100" width="11" height="11" fill="#2bb894" rx="1.5"/><rect x="517" y="100" width="11" height="11" fill="#2bb894" rx="1.5"/><rect x="528" y="100" width="11" height="11" fill="#2bb894" rx="1.5"/><rect x="539" y="100" width="11" height="11" fill="#2bb894" rx="1.5"/><rect x="484" y="111" width="11" height="11" fill="#1f9c85" rx="1.5"/><rect x="495" y="111" width="11" height="11" fill="#1f9c85" rx="1.5"/><rect x="528" y="111" width="11" height="11" fill="#1f9c85" rx="1.5"/><rect x="539" y="111" width="11" height="11" fill="#1f9c85" rx="1.5"/><rect x="484" y="122" width="11" height="11" fill="#177c72" rx="1.5"/><rect x="495" y="122" width="11" height="11" fill="#177c72" rx="1.5"/><rect x="528" y="122" width="11" height="11" fill="#177c72" rx="1.5"/><rect x="539" y="122" width="11" height="11" fill="#177c72" rx="1.5"/>
  <text x="380" y="167" fill="#7df0dd" font-size="15" letter-spacing="6" text-anchor="middle" opacity="0.85">LORA TRAINING STUDIO</text>
  <text x="380" y="266" fill="#3a4a4f" font-size="14" text-anchor="middle">$ soma train --arch flux --precision nf4</text>
</svg>